<?xml version="1.0" encoding="utf-8"?>
<!-- Generator: Adobe Illustrator 17.0.0, SVG Export Plug-In . SVG Version: 6.00 Build 0)  -->
<!DOCTYPE svg PUBLIC "-//W3C//DTD SVG 1.1//EN" "http://www.w3.org/Graphics/SVG/1.1/DTD/svg11.dtd">
<svg version="1.1" id="Layer_1" xmlns="http://www.w3.org/2000/svg" xmlns:xlink="http://www.w3.org/1999/xlink" x="0px" y="0px"
	 width="154.402px" height="83.505px" viewBox="0 0 154.402 83.505" enable-background="new 0 0 154.402 83.505"
	 xml:space="preserve">
<g>
	<path fill="#FFFFFF" d="M34.839,6.821v33.032H24.7v-12.85h-7.744v12.85H6.816V6.821h10.14v12.148H24.7V6.821H34.839z"/>
	<path fill="#FFFFFF" d="M60.471,31.964v7.889H35.618V6.821h24.853v7.623H45.564v4.791h12.051v7.332H45.564v5.396H60.471z"/>
	<path fill="#FFFFFF" d="M87.773,39.853h-8.252l-9.047-14.595c-1.161-1.872-2.332-4.145-3.513-6.822
		c0.532,2.13,0.799,3.937,0.799,5.421v15.996h-8.228V6.821h9.583l7.696,12.099c1.533,2.404,2.694,4.518,3.484,6.341
		c-0.516-2.823-0.774-5.711-0.774-8.663V6.821h8.252V39.853z"/>
	<path fill="#FFFFFF" d="M118.366,39.853h-11.094l-5.711-12.483l-3.426,4.86v7.623h-9.559V6.821h9.559v13.658l9.11-13.658h9.113
		l-8.342,12.09L118.366,39.853z"/>
	<path fill="#FFFFFF" d="M60.471,68.84v7.889H35.618V43.697h24.853v7.623H45.564v4.791h12.051v7.332H45.564v5.396H60.471z"/>
	<path fill="#FFFFFF" d="M87.773,76.729h-8.252l-9.047-14.595c-1.161-1.872-2.332-4.145-3.513-6.822
		c0.532,2.13,0.799,3.937,0.799,5.421v15.996h-8.228V43.697h9.583l7.696,12.099c1.533,2.404,2.694,4.518,3.484,6.341
		c-0.516-2.823-0.774-5.711-0.774-8.663v-9.777h8.252V76.729z"/>
	<path fill="#FFFFFF" d="M118.366,76.729h-11.094l-5.711-12.483l-3.426,4.86v7.623h-9.559V43.697h9.559v13.658l9.11-13.658h9.113
		l-8.342,12.09L118.366,76.729z"/>
	<path fill="#FFFFFF" d="M6.816,76.729V43.697h17.541c3.645,0,6.303,0.879,7.973,2.638c1.67,1.759,2.506,3.767,2.506,6.026
		c0,1.646-0.485,3.134-1.456,4.465c-0.971,1.331-2.417,2.247-4.341,2.747c4.472,1.033,6.708,3.598,6.708,7.695
		c0,2.452-0.789,4.643-2.367,6.57c-1.578,1.928-4.949,2.892-10.112,2.892H6.816z M16.586,56.353h4.911
		c1.231,0,2.101-0.298,2.607-0.895c0.506-0.597,0.759-1.234,0.759-1.912c0-1.839-1.181-2.759-3.544-2.759h-4.733V56.353z
		 M16.586,69.373h5.164c1.282,0,2.223-0.302,2.822-0.908c0.599-0.605,0.899-1.286,0.899-2.045c0-0.758-0.291-1.456-0.873-2.093
		c-0.582-0.637-1.65-0.956-3.202-0.956h-4.81V69.373z"/>
	<path fill="#FFFFFF" d="M152.909,82.012c-3.806-0.947-6.391-1.459-10.946-1.482c-8.934-0.002-30.236-0.006-52.073-0.011
		c-18.653,0.001-37.534,0.001-54.116,0.002c-8.291,0.001-16.007,0.001-22.833,0.002c-3.413,0-6.603,0.001-9.531,0.001
		c-0.147,0-0.293,0-0.438,0l0.002,0l0.003,0.001l0,0.004c0-0.266,0-0.528,0-0.786c0-1.328,0-3.457-0.001-4.639
		C2.975,44.641,2.974,24.122,2.973,11.218c0-3.209,0-5.944-0.001-8.242l0,0.001l0,0l0,0l0,0l0,0l0.041,0l0.177,0
		c0.94,0,1.774,0,2.508,0c2.935,0,4.257,0,4.257,0s19.91,0.002,49.773,0.005c14.931,0.001,32.351,0.002,51.014,0.004
		c9.331,0,18.974,0.001,28.771,0.001c2.449,0,4.908,0,7.375,0c1.233,0,2.468,0,3.705,0l0.833,0l-0.006,0
		c-0.006,0.002-0.002-0.007-0.003-0.01c0,4.929,0,9.876,0,14.824c0.004,20.969,0.009,43.673,0.011,52.393
		C151.449,74.75,151.962,78.206,152.909,82.012c0.947-3.806,1.459-7.262,1.482-11.818c0.002-8.72,0.006-31.424,0.011-52.393
		c0-5.005,0-10.009,0-14.995l0-1.865l0-0.932c-0.294-0.016-0.617-0.005-0.924-0.008l-2.885,0c-1.237,0-2.471,0-3.705,0
		c-2.466,0-4.925,0-7.375,0c-9.797,0-19.44,0.001-28.771,0.001C92.079,0.004,74.66,0.005,59.729,0.006
		C29.866,0.009,9.956,0.011,9.956,0.011s-1.322,0-4.257,0c-0.734,0-1.568,0-2.508,0c-0.871,0-1.791,0-2.761,0
		c-0.131,0-0.263,0-0.395,0c-0.049-0.016-0.022,0.044-0.029,0.07l0,0.1l0,0.201c0,0.268,0,0.54,0,0.815c0,0.55,0,1.114,0,1.692
		c0,2.322,0,5.087-0.001,8.33C0.004,24.122,0.003,44.641,0.002,75.103c0,1.182,0,3.312-0.001,4.639c0,1.074,0,2.176,0,3.306l0,0.263
		l0,0.132c0.004,0.018-0.009,0.053,0.009,0.057l0.066,0l0.53,0c0.354,0,0.711,0,1.069,0c0.572,0,1.151,0,1.736,0
		c2.928,0,6.118,0.001,9.531,0.001c6.826,0.001,14.542,0.001,22.833,0.002c16.582,0.001,35.463,0.001,54.116,0.002
		c21.837-0.005,43.14-0.009,52.073-0.011C146.518,83.471,149.103,82.959,152.909,82.012z"/>
	<g>
		<path fill="#FFFFFF" d="M131.088,39.881c-4.962,0-9.335-1.17-12.462-4.165c-3.128-2.994-4.364-7.327-4.364-12.344
			c0-4.797,1.167-9.088,4.157-12.215c2.989-3.128,7.465-4.364,12.772-4.364c4.911,0,9.24,1.147,12.333,4.094
			c3.093,2.948,4.312,7.21,4.312,12.133c0,5.095-1.232,9.507-4.351,12.58C140.366,38.672,136.016,39.881,131.088,39.881z
			 M126.579,25.333l-2.653,8.554l6.948-5.307l7.455,5.223l-3.137-8.565l7.508-5.159l-8.299,0.075L131,11.682l-3.328,8.474
			l-8.275,0.06L126.579,25.333z"/>
	</g>
	<g>
		<path fill="#FFFFFF" d="M131.088,76.757c-4.962,0-9.335-1.17-12.462-4.165c-3.128-2.994-4.364-7.327-4.364-12.344
			c0-4.797,1.167-9.088,4.157-12.215c2.989-3.128,7.465-4.364,12.772-4.364c4.911,0,9.24,1.147,12.333,4.094
			c3.093,2.948,4.312,7.21,4.312,12.133c0,5.095-1.232,9.507-4.351,12.58C140.366,75.549,136.016,76.757,131.088,76.757z
			 M126.579,62.21l-2.653,8.554l6.948-5.307l7.455,5.223l-3.137-8.565l7.508-5.159l-8.299,0.075L131,48.558l-3.328,8.474
			l-8.275,0.06L126.579,62.21z"/>
	</g>
</g>
</svg>
